# AST/ASF file generated using VICON BodyLanguage
# -----------------------------------------------
:version 1.10
:name VICON
:units
  mass 1.0
  length 0.45
  angle deg
:documentation
   .ast/.asf automatically generated from VICON data using
   VICON BodyBuilder and BodyLanguage model FoxedUp or BRILLIANT.MOD
:root
   order TX TY TZ RX RY RZ
   axis XYZ
   position 0 0 0  
   orientation 0 0 0 
:bonedata
  begin
     id 1 
     name lhipjoint
     direction 0.650112 -0.723553 0.232005 
     length 2.45805 
     axis 0 0 0  XYZ
  end
  begin
     id 2 
     name lfemur
     direction 0.34202 -0.939693 0  
     length 7.00073  
     axis 0 0 20  XYZ
    dof rx ry rz
    limits (-160.0 20.0)
           (-70.0 70.0)
           (-60.0 70.0)
  end
  begin
     id 3 
     name ltibia
     direction 0.34202 -0.939693 0   
     length 7.8748   
     axis 0 0 20   XYZ
    dof rx
    limits (-10.0 170.0)
  end
  begin
     id 4 
     name lfoot
     direction 0.0542825 -0.14914 0.987325   
     length 1.75978   
     axis -90 7.62852e-016 20   XYZ
    dof rx rz
    limits (-45.0 90.0)
           (-70.0 20.0)
  end
  begin
     id 5 
     name ltoes
     direction 1.53509e-011 -4.21906e-011 1   
     length 0.893912   
     axis -90 7.62852e-016 20   XYZ
    dof rx
    limits (-90.0 20.0)
  end
  begin
     id 6 
     name rhipjoint
     direction -0.637897 -0.733345 0.235145   
     length 2.42522  
     axis 0 0 0  XYZ 
  end
  begin
     id 7 
     name rfemur
     direction -0.34202 -0.939693 0   
     length 7.02549   
     axis 0 0 -20   XYZ
    dof rx ry rz
    limits (-160.0 20.0)
           (-70.0 70.0)
           (-70.0 60.0)
  end
  begin
     id 8 
     name rtibia
     direction -0.34202 -0.939693 0   
     length 7.71512   
     axis 0 0 -20   XYZ
    dof rx
    limits (-10.0 170.0)
 end
 begin
     id 9 
     name rfoot
     direction -0.0822618 -0.226012 0.970645   
     length 1.90014  
     axis -90 -7.62852e-016 -20   XYZ
    dof rx rz
    limits (-45.0 90.0)
           (-20.0 70.0)
  end
  begin
     id 10 
     name rtoes
     direction -1.53542e-011 -4.21872e-011 1   
     length 0.957341   
     axis -90 -7.62852e-016 -20   XYZ
    dof rx
    limits (-90.0 20.0)
  end
  begin
     id 11 
     name lowerback
     direction -0.0022947 0.999774 -0.0211557   
     length 1.89909   
     axis 0 0 0   XYZ
    dof rx ry rz
    limits (-20.0 45.0)
           (-30.0 30.0)
           (-30.0 30.0)
  end
  begin
     id 12 
     name upperback
     direction 0.0107737 0.998635 0.0511027   
     length 1.8853   
     axis 0 0 0   XYZ
    dof rx ry rz
    limits (-20.0 45.0)
           (-30.0 30.0)
           (-30.0 30.0)
  end
  begin
     id 13 
     name thorax
     direction 0.011824 0.998136 0.0598754   
     length 1.88911   
     axis 0 0 0   XYZ
    dof rx ry rz
    limits (-20.0 45.0)
           (-30.0 30.0)
           (-30.0 30.0)
  end
  begin
     id 14 
     name lowerneck
     direction -0.0685355 0.990319 0.120714   
     length 1.91222   
     axis 0 0 0   XYZ
    dof rx ry rz
    limits (-20.0 45.0)
           (-30.0 30.0)
           (-30.0 30.0)
  end
  begin
     id 15 
     name upperneck
     direction 0.0886204 0.955665 -0.280805   
     length 1.92526   
     axis 0 0 0   XYZ
    dof rx ry rz
    limits (-20.0 45.0)
           (-30.0 30.0)
           (-30.0 30.0)
  end
  begin
     id 16
     name head
     direction 0.0233423 0.993502 -0.111393  
     length 1.96056  
     axis 0 0 0   XYZ
    dof rx ry rz
    limits (-20.0 45.0)
           (-30.0 30.0)
           (-30.0 30.0)
  end
  begin
     id 17 
     name lclavicle
     direction 0.941873 0.32922 0.0670041  
     length 3.31705  
     axis 0 0 0   XYZ
    dof ry rz
    limits (-20.0 10.0)
           (0.0 20.0)
  end
  begin
     id 18 
     name lhumerus
     direction 1 -4.4898e-011 3.38707e-028   
     length 5.29277   
     axis 180 -30 -90   XYZ
    dof rx ry rz
    limits (-60.0 90.0)
           (-90.0 90.0)
           (-90.0 90.0)
  end
  begin
     id 19
     name lradius
     direction 1 -4.48952e-011 1.63213e-028   
     length 2.85226   
     axis 180 -30 -90   XYZ
    dof rx
    limits (-10.0 170.0)
  end
  begin
     id 20
     name lwrist
     direction 1 -4.49001e-011 1.27856e-027   
     length 1.42613   
     axis -1.61767e-015 90 90   XYZ
    dof ry
    limits (-180.0 0.0)
 end
  begin
     id 21 
     name lhand
     direction 1 -4.48976e-011 2.55931e-027   
     length 0.602097   
     axis -1.63363e-015 90 90   XYZ
    dof rx rz
    limits (-90.0 90.0)
           (-45.0 45.0)
  end
  begin
     id 22 
     name lfingers
     direction 1 -4.48986e-011 5.11684e-027   
     length 0.485426   
     axis -3.26723e-015 90 90   XYZ
    dof rx
    limits (0.0 90.0)
  end
  begin
     id 23
     name lthumb
     direction 0.707107 -6.34915e-011 0.707107   
     length 0.696978   
     axis -90 45 -2.25915e-014   XYZ
    dof rx rz
    limits (-45.0 45.0)
           (-45.0 45.0)
  end
  begin
     id 24 
     name rclavicle
     direction -0.939974 0.327078 0.0973096   
     length 3.10337  
     axis 0 0 0   XYZ 
    dof ry rz
    limits (-10.0 20.0)
           (-20.0 0.0)
  end
  begin
     id 25 
     name rhumerus
     direction -1 -4.48975e-011 1.83745e-027  
     length 5.13304   
     axis 180 30 90   XYZ
    dof rx ry rz
    limits (-90.0 60.0)
           (-90.0 90.0)
           (-90.0 90.0)
  end
  begin
     id 26 
     name rradius
     direction -1 -4.48977e-011 7.1775e-029   
     length 2.74305   
     axis 180 30 90   XYZ
    dof rx
    limits (-10.0 170.0)
  end
  begin
     id 27 
     name rwrist
     direction -1 -4.48977e-011 1.27963e-027   
     length 1.37152   
     axis -1.61767e-015 -90 -90   XYZ
    dof ry
    limits (-180.0 0.0)
  end
  begin
     id 28
     name rhand
     direction -1 -4.4888e-011 2.56782e-027   
     length 0.767976   
     axis -1.63363e-015 -90 -90   XYZ
    dof rx rz
    limits (-90.0 90.0)
           (-45.0 45.0)
  end
  begin
     id 29
     name rfingers
     direction -1 -4.48947e-011 5.12384e-027   
     length 0.619162   
     axis -3.26723e-015 -90 -90   XYZ
    dof rx
    limits (0.0 90.0)
  end
  begin
     id 30
     name rthumb
     direction -0.707107 -6.34857e-011 0.707107   
     length 0.888997   
     axis -90 -45 2.25915e-014   XYZ
    dof rx rz
    limits (-45.0 45.0)
           (-45.0 45.0)
  end
:hierarchy
  begin
    root lhipjoint rhipjoint lowerback
    lhipjoint lfemur
    lfemur ltibia
    ltibia lfoot
    lfoot ltoes
    rhipjoint rfemur
    rfemur rtibia
    rtibia rfoot
    rfoot rtoes
    lowerback upperback
    upperback thorax
    thorax lowerneck lclavicle rclavicle
    lowerneck upperneck
    upperneck head
    lclavicle lhumerus
    lhumerus lradius
    lradius lwrist
    lwrist lhand lthumb
    lhand lfingers
    rclavicle rhumerus
    rhumerus rradius
    rradius rwrist
    rwrist rhand rthumb
    rhand rfingers
  end

#!OML:ASF F:\VICON\USERDATA\INSTALL\rory3\rory3.ASF
:FULLY-SPECIFIED
:DEGREES
503
root -0.281932 16.2783 0.793295 -15.3694 7.25341 -6.01314
lowerback -7.54952 -1.27918 -1.26966
upperback -2.08174 -1.50803 -3.3527
thorax 2.02203 -0.751338 -2.88694
lowerneck -5.6714 -10.1165 -21.8115
upperneck 31.2451 -14.6447 10.7444
head 14.1708 -8.03928 5.74452
rclavicle 3.18055e-014 3.65764e-014
rhumerus 12.4943 -25.0956 -6.43528
rradius 80.933
rwrist 4.76587
rhand -10.6118 14.179
rfingers 7.12502
rthumb 15.3944 -15.2278
lclavicle 3.18055e-014 3.65764e-014
lhumerus 6.00629 10.6468 19.5947
lradius 88.9956
lwrist 18.6032
lhand -4.74808 22.2039
lfingers 7.12502
lthumb 21.0354 51.083
rfemur 11.2948 -0.866177 27.4673
rtibia 33.0622
rfoot -28.1771 -11.2543
rtoes -15.5254
lfemur 3.10716 -4.90814 -9.39715
ltibia 42.4768
lfoot -28.8038 -9.48444
ltoes -13.9152
504
root -0.29507 16.2766 0.778895 -15.3896 7.18232 -6.28914
lowerback -7.55118 -1.24886 -1.11987
upperback -2.03065 -1.47813 -3.33267
thorax 2.07367 -0.735839 -2.94879
lowerneck -5.77062 -10.1088 -21.8133
upperneck 31.3956 -14.5405 10.5167
head 14.2183 -8.01679 5.66707
rclavicle 1.59028e-015 -2.06736e-014
rhumerus 12.8644 -25.4552 -6.57434
rradius 82.7088
rwrist 4.80707
rhand -11.144 13.9095
rfingers 7.12502
rthumb 14.8818 -15.536
lclavicle 1.59028e-015 -2.06736e-014
lhumerus 5.30853 9.74738 20.1597
lradius 89.0512
lwrist 18.8675
lhand -4.93568 22.4765
lfingers 7.12502
lthumb 20.8552 51.3756
rfemur 11.2276 -1.00543 27.7645
rtibia 33.0238
rfoot -28.1737 -11.1335
rtoes -15.2511
lfemur 2.9325 -5.07864 -9.09712
ltibia 42.6857
lfoot -29.007 -9.04518
ltoes -15.3084
505
root -0.30734 16.2756 0.764445 -15.4522 7.17943 -6.42036
lowerback -7.4954 -1.22939 -1.10847
upperback -1.95072 -1.45094 -3.38882
thorax 2.12464 -0.721823 -3.01101
lowerneck -5.87296 -10.0836 -21.8253
upperneck 31.5474 -14.4664 10.4582
head 14.2902 -7.99228 5.65848
rclavicle -7.95139e-016 1.90833e-014
rhumerus 12.9848 -25.7059 -6.65341
rradius 84.7507
rwrist 4.51427
rhand -11.3867 13.6477
rfingers 7.12502
rthumb 14.6479 -15.8149
lclavicle -7.95139e-016 1.90833e-014
lhumerus 4.7518 8.86658 20.646
lradius 89.1245
lwrist 18.9721
lhand -4.97526 22.533
lfingers 7.12502
lthumb 20.8172 51.4363
rfemur 11.2241 -1.13625 27.9097
rtibia 32.997
rfoot -28.2098 -11.124
rtoes -15.2351
lfemur 2.84836 -5.31499 -8.98556
ltibia 42.8369
lfoot -29.0329 -9.01964
ltoes -14.6995
506
root -0.317857 16.2748 0.750515 -15.4961 7.0916 -6.5071
lowerback -7.46506 -1.21053 -1.10222
upperback -1.8733 -1.42385 -3.42972
thorax 2.18775 -0.707815 -3.05519
lowerneck -5.87243 -10.0226 -21.7998
upperneck 31.5765 -14.3584 10.4064
head 14.2723 -7.9485 5.65472
rclavicle -5.56597e-015 1.90833e-014
rhumerus 13.0375 -25.8348 -6.71265
rradius 86.9819
rwrist 4.04929
rhand -11.5482 13.4546
rfingers 7.12502
rthumb 14.4923 -16.0193
lclavicle -5.56597e-015 1.90833e-014
lhumerus 4.2008 8.20779 21.1366
lradius 89.1566
lwrist 18.9719
lhand -4.49616 22.1746
lfingers 7.12502
lthumb 21.2774 51.0267
rfemur 11.2096 -1.1731 28.0217
rtibia 32.9716
rfoot -28.1509 -11.0962
rtoes -15.3791
lfemur 2.79705 -5.43303 -8.90212
ltibia 42.9726
lfoot -29.1199 -8.84143
ltoes -14.9787
507
root -0.327286 16.274 0.734401 -15.4914 6.87368 -6.68222
lowerback -7.49161 -1.18258 -0.986897
upperback -1.81137 -1.39393 -3.3951
thorax 2.26593 -0.692017 -3.08337
lowerneck -5.85082 -9.94488 -21.8095
upperneck 31.5685 -14.2163 10.3447
head 14.2288 -7.8943 5.65866
rclavicle -1.74931e-014 7.95139e-015
rhumerus 13.0978 -25.7497 -6.78131
rradius 89.2581
rwrist 3.71815
rhand -11.8443 13.2897
rfingers 7.12502
rthumb 14.207 -16.2045
lclavicle -1.74931e-014 7.95139e-015
lhumerus 3.64768 7.62425 21.5079
lradius 89.2617
lwrist 18.9293
lhand -4.11496 22.0413
lfingers 7.12502
lthumb 21.6436 50.8516
rfemur 11.1091 -1.12559 28.2581
rtibia 32.9444
rfoot -28.0284 -11.0481
rtoes -15.6102
lfemur 2.71248 -5.42569 -8.67417
ltibia 43.0959
lfoot -29.223 -8.61922
ltoes -15.4682
508
root -0.3367 16.2714 0.714222 -15.5403 6.61565 -7.02273
lowerback -7.39895 -1.15625 -0.720584
upperback -1.7856 -1.38435 -3.30111
thorax 2.23745 -0.686484 -3.13283
lowerneck -5.78667 -9.8488 -21.8404
upperneck 31.6366 -14.0557 10.2676
head 14.2079 -7.84061 5.66712
rclavicle 1.27222e-014 2.54444e-014
rhumerus 13.1328 -25.4596 -6.85512
rradius 91.4804
rwrist 3.46619
rhand -12.1494 13.2423
rfingers 7.12502
rthumb 13.9131 -16.2723
lclavicle 1.27222e-014 2.54444e-014
lhumerus 3.15193 7.094 21.7871
lradius 89.5657
lwrist 18.8193
lhand -3.89011 22.1901
lfingers 7.12502
lthumb 21.8595 50.9754
rfemur 11.0224 -1.03464 28.7031
rtibia 32.9081
rfoot -27.8557 -10.9409
rtoes -15.5253
lfemur 2.63334 -5.40612 -8.23644
ltibia 43.1954
lfoot -29.1524 -8.66971
ltoes -14.8618
509
root -0.343239 16.2703 0.698372 -15.6228 6.43959 -7.28762
lowerback -7.31342 -1.12408 -0.531088
upperback -1.79485 -1.36016 -3.25012
thorax 2.17829 -0.674281 -3.18201
lowerneck -5.55467 -9.72999 -21.8766
upperneck 31.8042 -13.9282 10.2382
head 14.2075 -7.80835 5.70137
rclavicle -1.19271e-014 -1.59028e-015
rhumerus 13.0065 -24.9492 -6.95961
rradius 93.7995
rwrist 3.28245
rhand -12.0401 13.2128
rfingers 7.12502
rthumb 14.0183 -16.2945
lclavicle -1.19271e-014 -1.59028e-015
lhumerus 2.76867 6.56371 22.0204
lradius 90.016
lwrist 18.7786
lhand -3.59365 22.223
lfingers 7.12502
lthumb 22.1441 50.9748
rfemur 11.0196 -1.01466 29.0292
rtibia 32.8698
rfoot -27.7437 -10.8691
rtoes -15.3488
lfemur 2.63206 -5.46668 -7.93992
ltibia 43.2522
lfoot -29.1228 -8.62198
ltoes -14.4153
510
root -0.346098 16.2727 0.686545 -15.6809 6.36528 -7.30049
lowerback -7.31907 -1.10593 -0.539574
upperback -1.76939 -1.33345 -3.29164
thorax 2.20827 -0.660666 -3.21864
lowerneck -5.33079 -9.63094 -21.8988
upperneck 31.9217 -13.8314 10.2225
head 14.1924 -7.7844 5.73106
rclavicle 4.37326e-014 3.18055e-015
rhumerus 12.7697 -24.3446 -7.12331
rradius 96.1253
rwrist 3.32492
rhand -11.9504 13.3406
rfingers 7.12502
rthumb 14.1048 -16.1607
lclavicle 4.37326e-014 3.18055e-015
lhumerus 2.47904 6.05811 22.1757
lradius 90.3866
lwrist 18.5872
lhand -3.40877 22.0974
lfingers 7.12502
lthumb 22.3216 50.828
rfemur 11.0566 -1.06051 29.0196
rtibia 32.8305
rfoot -27.6584 -10.8683
rtoes -15.4608
lfemur 2.68515 -5.61797 -8.00274
ltibia 43.2553
lfoot -29.1813 -8.44599
ltoes -14.5701
511
root -0.348018 16.2748 0.673159 -15.7303 6.26446 -7.26003
lowerback -7.34093 -1.10756 -0.588339
upperback -1.69274 -1.32833 -3.3226
thorax 2.30025 -0.657304 -3.22485
lowerneck -5.31995 -9.58812 -21.9085
upperneck 32.079 -13.7491 10.1303
head 14.2378 -7.76523 5.71423
rclavicle -1.90833e-014 5.40694e-014
rhumerus 12.5371 -23.6789 -7.44657
rradius 98.4141
rwrist 3.64574
rhand -12.0245 13.5731
rfingers 7.12502
rthumb 14.0334 -15.9332
lclavicle -1.90833e-014 5.40694e-014
lhumerus 2.32234 5.72064 22.2762
lradius 90.6227
lwrist 17.9883
lhand -3.43336 21.996
lfingers 7.12502
lthumb 22.298 50.7295
rfemur 11.0785 -1.02941 28.9738
rtibia 32.792
rfoot -27.6511 -10.8198
rtoes -15.56
lfemur 2.76466 -5.74661 -8.13094
ltibia 43.2198
lfoot -29.3229 -7.92039
ltoes -15.84
512
root -0.347677 16.2783 0.659738 -15.7687 6.16804 -7.261
lowerback -7.38792 -1.08786 -0.5624
upperback -1.58624 -1.29872 -3.36255
thorax 2.43646 -0.640911 -3.28161
lowerneck -5.30223 -9.57538 -21.8742
upperneck 32.2129 -13.7229 10.0485
head 14.2794 -7.76377 5.6836
rclavicle 2.46493e-014 1.27222e-014
rhumerus 12.0646 -22.8771 -7.77613
rradius 100.562
rwrist 4.36027
rhand -12.5455 13.6759
rfingers 7.12502
rthumb 13.5312 -15.8645
lclavicle 2.46493e-014 1.27222e-014
lhumerus 2.44573 5.45828 22.297
lradius 90.8155
lwrist 17.2352
lhand -3.52478 21.8542
lfingers 7.12502
lthumb 22.2102 50.5982
rfemur 11.0712 -0.975135 28.9745
rtibia 32.7761
rfoot -27.5815 -10.6859
rtoes -15.4795
lfemur 2.81671 -5.78095 -8.17694
ltibia 43.1678
lfoot -29.437 -7.30207
ltoes -17.6299
513
root -0.345312 16.2806 0.644431 -15.8182 6.07185 -7.30569
lowerback -7.35759 -1.06963 -0.497546
upperback -1.49842 -1.27833 -3.34761
thorax 2.51032 -0.629469 -3.3016
lowerneck -5.36685 -9.58575 -21.8403
upperneck 32.4916 -13.6721 9.81448
head 14.3889 -7.76849 5.59236
rclavicle 1.35174e-014 3.02153e-014
rhumerus 11.6671 -21.9809 -7.99543
rradius 102.356
rwrist 5.11723
rhand -13.0012 13.7973
rfingers 7.12502
rthumb 13.092 -15.7718
lclavicle 1.35174e-014 3.02153e-014
lhumerus 2.61656 5.28072 22.2544
lradius 91.1417
lwrist 16.7204
lhand -3.43232 21.7404
lfingers 7.12502
lthumb 22.299 50.4738
rfemur 11.0526 -0.901975 29.0328
rtibia 32.7873
rfoot -27.4729 -10.744
rtoes -15.9205
lfemur 2.86789 -5.79262 -8.1637
ltibia 43.107
lfoot -29.5215 -6.95397
ltoes -18.7516
514
root -0.342191 16.2814 0.628389 -15.8557 5.99648 -7.27545
lowerback -7.34061 -1.03495 -0.544922
upperback -1.42119 -1.2279 -3.31497
thorax 2.58511 -0.603875 -3.23714
lowerneck -5.48494 -9.63366 -21.7452
upperneck 32.8676 -13.6154 9.38648
head 14.5331 -7.7845 5.408
rclavicle 2.06736e-014 2.38542e-014
rhumerus 11.2913 -21.181 -8.09007
rradius 103.834
rwrist 5.46571
rhand -12.8476 14.1414
rfingers 7.12502
rthumb 13.2401 -15.4181
lclavicle 2.06736e-014 2.38542e-014
lhumerus 2.91024 5.26147 22.2198
lradius 91.551
lwrist 16.2447
lhand -3.32138 21.6627
lfingers 7.12502
lthumb 22.4055 50.3832
rfemur 11.0302 -0.833119 29.0008
rtibia 32.817
rfoot -27.4182 -10.8025
rtoes -16.1554
lfemur 2.94143 -5.88606 -8.28155
ltibia 43.0221
lfoot -29.5529 -6.63745
ltoes -19.323
515
root -0.334793 16.2848 0.615894 -15.8219 5.9926 -7.11561
lowerback -7.45855 -1.02989 -0.686605
upperback -1.36621 -1.20458 -3.33504
thorax 2.71145 -0.592111 -3.17993
lowerneck -5.26698 -9.5955 -21.7385
upperneck 32.9167 -13.5462 9.19903
head 14.4778 -7.78281 5.35011
rclavicle 1.51076e-014 1.27222e-014
rhumerus 10.8106 -20.3266 -8.37504
rradius 105.203
rwrist 5.63261
rhand -12.5228 14.4033
rfingers 7.12502
rthumb 13.5531 -15.1356
lclavicle 1.51076e-014 1.27222e-014
lhumerus 3.31883 5.29492 22.0292
lradius 91.8375
lwrist 16.0758
lhand -3.57646 21.4591
lfingers 7.12502
lthumb 22.1606 50.2089
rfemur 10.942 -0.82804 28.764
rtibia 32.8865
rfoot -27.4228 -10.6692
rtoes -15.8743
lfemur 2.98759 -6.05118 -8.60351
ltibia 42.8904
lfoot -29.5187 -6.36128
ltoes -19.2669
516
root -0.327696 16.2908 0.604734 -15.7564 6.00476 -6.87671
lowerback -7.64647 -0.995353 -0.921032
upperback -1.26607 -1.12979 -3.37541
thorax 2.92736 -0.555014 -3.08904
lowerneck -4.84792 -9.54801 -21.895
upperneck 32.6588 -13.5757 9.35862
head 14.3026 -7.80406 5.44975
rclavicle 4.77083e-015 5.725e-014
rhumerus 10.0644 -19.495 -8.69523
rradius 106.4
rwrist 5.80557
rhand -12.4474 14.4234
rfingers 7.12502
rthumb 13.6258 -15.1106
lclavicle 4.77083e-015 5.725e-014
lhumerus 4.04588 5.36965 21.7836
lradius 91.9257
lwrist 16.3461
lhand -4.4173 21.4065
lfingers 7.12502
lthumb 21.3532 50.25
rfemur 10.8266 -0.790734 28.4529
rtibia 32.9797
rfoot -27.5581 -10.4932
rtoes -15.4624
lfemur 3.01614 -6.18457 -8.99376
ltibia 42.7414
lfoot -29.4515 -6.07239
ltoes -19.3878
